<svg xmlns="http://www.w3.org/2000/svg" viewBox="0 0 1024 1024"><defs><linearGradient id="bg" x1="0" y1="0" x2="1" y2="1"><stop offset="0" stop-color="#EAF8FF"/><stop offset="1" stop-color="#FFFFFF"/></linearGradient><linearGradient id="onion" x1="0" y1="0" x2="1" y2="1"><stop offset="0" stop-color="#19B8FF"/><stop offset="1" stop-color="#0678FF"/></linearGradient><filter id="s"><feDropShadow dx="0" dy="22" stdDeviation="24" flood-color="#0879E9" flood-opacity=".18"/></filter></defs><rect width="1024" height="1024" rx="128" fill="url(#bg)"/><circle cx="815" cy="168" r="190" fill="#D8F2FF"/><circle cx="170" cy="840" r="220" fill="#F1ECFF"/><path d="M0 320C220 240 340 390 520 330C700 270 780 180 1024 220V0H0Z" fill="#D8F1FF" opacity=".8"/><text x="82" y="140" font-family="PingFang SC,Microsoft YaHei,Arial" font-size="54" font-weight="900" fill="#15233B">洋葱学园</text><text x="82" y="198" font-family="Arial" font-size="44" font-weight="900" fill="#0987FF">CHARGE 充电葱</text><g filter="url(#s)"><path d="M399 280c124 53 202 164 202 304 0 157-91 264-216 264S169 741 169 584c0-140 78-251 202-304 8-3 20-3 28 0z" transform="translate(170 -8)" fill="url(#onion)"/><path d="M642 300c42-22 100-14 132 24 34 40 28 102-14 136" fill="none" stroke="#0A72DA" stroke-width="34" stroke-linecap="round" opacity=".72"/><circle cx="480" cy="535" r="42" fill="#fff"/><circle cx="622" cy="535" r="42" fill="#fff"/><circle cx="492" cy="546" r="23" fill="#47270F"/><circle cx="634" cy="546" r="23" fill="#47270F"/><circle cx="501" cy="536" r="8" fill="#fff"/><circle cx="643" cy="536" r="8" fill="#fff"/><path d="M500 650c44 35 96 35 142 0" fill="none" stroke="#075DBB" stroke-width="18" stroke-linecap="round"/></g><g transform="translate(660 636)"><rect x="0" y="0" width="220" height="118" rx="30" fill="#fff" stroke="#7C7CFF" stroke-width="16"/><rect x="36" y="34" width="58" height="50" rx="14" fill="#19B8FF"/><rect x="108" y="34" width="58" height="50" rx="14" fill="#19B8FF"/><rect x="220" y="39" width="28" height="42" rx="10" fill="#7C7CFF"/></g><path d="M742 392v82M694 424h96" stroke="#FFB22E" stroke-width="24" stroke-linecap="round"/><text x="512" y="920" text-anchor="middle" font-family="PingFang SC,Microsoft YaHei,Arial" font-size="42" font-weight="900" fill="#15233B">状态充满，马上开跑</text></svg>