<svg xmlns="http://www.w3.org/2000/svg" viewBox="0 0 1024 1024"><rect width="1024" height="1024" rx="96" fill="#fff9eb"/><circle cx="790" cy="178" r="150" fill="#ece0ff"/><circle cx="218" cy="818" r="168" fill="#dff3b6"/><circle cx="512" cy="522" r="334" fill="none" stroke="#8bc45c" stroke-width="26" opacity=".34"/><path d="M404 292c96 42 154 126 154 232 0 118-70 200-164 200s-164-82-164-200c0-106 58-190 154-232 6-3 14-3 20 0z" fill="#bde36f"/><circle cx="362" cy="514" r="17" fill="#203422"/><circle cx="446" cy="514" r="17" fill="#203422"/><path d="M364 582c38 30 78 30 116 0" fill="none" stroke="#203422" stroke-width="17" stroke-linecap="round"/><rect x="594" y="468" width="218" height="118" rx="28" fill="#fffdf4" stroke="#7a62ac" stroke-width="18"/><rect x="626" y="502" width="54" height="50" rx="14" fill="#8ac75d"/><rect x="690" y="502" width="54" height="50" rx="14" fill="#8ac75d"/><text x="76" y="150" font-family="Arial" font-size="68" font-weight="800" fill="#7a62ac">CHARGE</text></svg>