<svg xmlns="http://www.w3.org/2000/svg" viewBox="0 0 1024 1024"><rect width="1024" height="1024" rx="96" fill="#fff9e8"/><circle cx="790" cy="184" r="150" fill="#dce8f6"/><circle cx="210" cy="822" r="168" fill="#dff3b6"/><circle cx="512" cy="518" r="330" fill="none" stroke="#87bb5d" stroke-width="28" opacity=".35"/><path d="M392 268c98 44 158 130 158 238 0 120-70 202-164 202s-164-82-164-202c0-108 60-194 158-238 4-2 8-2 12 0z" fill="#bde36f"/><circle cx="350" cy="500" r="42" fill="none" stroke="#1f3445" stroke-width="16"/><circle cx="438" cy="500" r="42" fill="none" stroke="#1f3445" stroke-width="16"/><path d="M356 584c34 26 72 26 108 0" fill="none" stroke="#203422" stroke-width="16" stroke-linecap="round"/><rect x="584" y="438" width="210" height="210" rx="34" fill="#20384e"/><path d="M620 506h140M616 570h146" stroke="#fff8df" stroke-width="18" stroke-linecap="round"/><text x="90" y="150" font-family="Arial" font-size="72" font-weight="800" fill="#20384e">CORE</text></svg>