<svg xmlns="http://www.w3.org/2000/svg" viewBox="0 0 1024 1024"><rect width="1024" height="1024" rx="96" fill="#fff9e8"/><circle cx="794" cy="178" r="148" fill="#d8ecff"/><circle cx="210" cy="810" r="172" fill="#dff3b6"/><circle cx="512" cy="522" r="334" fill="none" stroke="#8bc45c" stroke-width="26" opacity=".34"/><path d="M404 266c98 44 158 130 158 238 0 120-70 202-164 202s-164-82-164-202c0-108 60-194 158-238 4-2 8-2 12 0z" fill="#bde36f"/><circle cx="364" cy="496" r="17" fill="#203422"/><circle cx="448" cy="496" r="17" fill="#203422"/><path d="M366 562c38 30 78 30 116 0" fill="none" stroke="#203422" stroke-width="17" stroke-linecap="round"/><path d="M514 704c90-82 102-168 52-260M542 648c84 12 154-20 210-94" stroke="#e5b451" stroke-width="34" stroke-linecap="round" fill="none"/><circle cx="676" cy="354" r="66" fill="#fffdf4" stroke="#2f617d" stroke-width="18"/><text x="96" y="150" font-family="Arial" font-size="72" font-weight="800" fill="#2f617d">PATH</text></svg>