<svg xmlns="http://www.w3.org/2000/svg" viewBox="0 0 1024 1024"><rect width="1024" height="1024" rx="96" fill="#fff9ec"/><circle cx="790" cy="184" r="150" fill="#ffdce7"/><circle cx="216" cy="812" r="165" fill="#dff3b6"/><g fill="none" stroke="#8bbf60" stroke-width="26" opacity=".35"><circle cx="512" cy="520" r="332"/><circle cx="512" cy="520" r="238"/></g><path d="M414 280c98 42 158 128 158 236 0 120-70 202-164 202s-164-82-164-202c0-108 60-194 158-236 4-2 8-2 12 0z" fill="#bde36f"/><circle cx="370" cy="504" r="17" fill="#203422"/><circle cx="454" cy="504" r="17" fill="#203422"/><path d="M370 570c40 32 80 32 120 0" fill="none" stroke="#203422" stroke-width="17" stroke-linecap="round"/><path d="M640 330c60 44 94 104 104 178M694 258c88 64 140 148 154 252" stroke="#78aee8" stroke-width="20" stroke-linecap="round" fill="none"/><path d="M666 584c34-62 124-44 124 28 0 58-72 94-124 140-52-46-124-82-124-140 0-72 90-90 124-28z" fill="#ff9eba"/><text x="82" y="150" font-family="Arial" font-size="70" font-weight="800" fill="#cf6a86">RADAR</text></svg>