<svg xmlns="http://www.w3.org/2000/svg" viewBox="0 0 1024 1024"><defs><linearGradient id="bg" x1="0" y1="0" x2="1" y2="1"><stop offset="0" stop-color="#EAF8FF"/><stop offset="1" stop-color="#FFFFFF"/></linearGradient><linearGradient id="onion" x1="0" y1="0" x2="1" y2="1"><stop offset="0" stop-color="#19B8FF"/><stop offset="1" stop-color="#0678FF"/></linearGradient><filter id="s"><feDropShadow dx="0" dy="22" stdDeviation="24" flood-color="#0879E9" flood-opacity=".18"/></filter></defs><rect width="1024" height="1024" rx="128" fill="url(#bg)"/><circle cx="815" cy="168" r="190" fill="#D8F2FF"/><circle cx="170" cy="840" r="220" fill="#EAF8FF"/><path d="M0 320C220 240 340 390 520 330C700 270 780 180 1024 220V0H0Z" fill="#D8F1FF" opacity=".8"/><text x="82" y="140" font-family="PingFang SC,Microsoft YaHei,Arial" font-size="54" font-weight="900" fill="#15233B">洋葱学园</text><text x="82" y="198" font-family="Arial" font-size="44" font-weight="900" fill="#0987FF">ROOT 根系葱</text><g filter="url(#s)"><path d="M399 280c124 53 202 164 202 304 0 157-91 264-216 264S169 741 169 584c0-140 78-251 202-304 8-3 20-3 28 0z" transform="translate(170 -8)" fill="url(#onion)"/><path d="M642 300c42-22 100-14 132 24 34 40 28 102-14 136" fill="none" stroke="#0A72DA" stroke-width="34" stroke-linecap="round" opacity=".72"/><circle cx="480" cy="535" r="42" fill="#fff"/><circle cx="622" cy="535" r="42" fill="#fff"/><circle cx="492" cy="546" r="23" fill="#47270F"/><circle cx="634" cy="546" r="23" fill="#47270F"/><circle cx="501" cy="536" r="8" fill="#fff"/><circle cx="643" cy="536" r="8" fill="#fff"/><path d="M500 650c44 35 96 35 142 0" fill="none" stroke="#075DBB" stroke-width="18" stroke-linecap="round"/></g><g stroke="#0987FF" stroke-width="20" stroke-linecap="round" fill="none"><path d="M514 748v86"/><path d="M514 802c-58 4-100 28-132 72"/><path d="M514 802c64 6 110 32 148 76"/></g><rect x="256" y="782" width="520" height="54" rx="20" fill="#D8F2FF"/><text x="512" y="920" text-anchor="middle" font-family="PingFang SC,Microsoft YaHei,Arial" font-size="42" font-weight="900" fill="#15233B">慢慢扎根，越学越稳</text></svg>