<svg xmlns="http://www.w3.org/2000/svg" viewBox="0 0 1024 1024"><rect width="1024" height="1024" rx="96" fill="#fff8e6"/><circle cx="808" cy="180" r="140" fill="#e5efc8"/><circle cx="205" cy="810" r="180" fill="#f7d98b"/><g fill="none" stroke="#91bd65" stroke-width="28" opacity=".36"><circle cx="512" cy="510" r="330"/><circle cx="512" cy="510" r="240"/></g><rect x="224" y="662" width="580" height="70" rx="24" fill="#7fb96b"/><rect x="266" y="590" width="480" height="70" rx="24" fill="#f3c96b"/><path d="M428 248c92 44 148 126 148 228 0 112-66 190-154 190s-154-78-154-190c0-102 56-184 148-228 4-2 8-2 12 0z" fill="#bfe06e"/><circle cx="384" cy="462" r="16" fill="#203422"/><circle cx="462" cy="462" r="16" fill="#203422"/><path d="M386 526c34 28 72 28 108 0" fill="none" stroke="#203422" stroke-width="16" stroke-linecap="round"/><path d="M430 664c-18 52-56 88-116 108M448 664c20 58 64 94 132 112" stroke="#6b8f45" stroke-width="18" stroke-linecap="round" fill="none"/><text x="90" y="150" font-family="Arial" font-size="72" font-weight="800" fill="#6d8650">ROOT</text></svg>