<svg xmlns="http://www.w3.org/2000/svg" viewBox="0 0 1024 1024"><rect width="1024" height="1024" rx="96" fill="#fff8df"/><circle cx="790" cy="180" r="140" fill="#dff3b6"/><circle cx="230" cy="810" r="170" fill="#ffe59a"/><circle cx="512" cy="512" r="330" fill="none" stroke="#84bf5a" stroke-width="28" opacity=".4"/><path d="M360 274c104 46 168 138 168 252 0 128-75 214-176 214s-176-86-176-214c0-114 64-206 168-252 5-2 11-2 16 0z" fill="#b9df6a"/><circle cx="310" cy="500" r="18" fill="#203422"/><circle cx="400" cy="500" r="18" fill="#203422"/><path d="M314 574c42 38 86 38 126 0" fill="none" stroke="#203422" stroke-width="18" stroke-linecap="round"/><path d="M458 436l178-72-34 178z" fill="#fffdf4" stroke="#406c37" stroke-width="18" stroke-linejoin="round"/><text x="90" y="150" font-family="Arial" font-size="72" font-weight="800" fill="#406c37">RUSH</text></svg>