<svg xmlns="http://www.w3.org/2000/svg" viewBox="0 0 1024 1024"><rect width="1024" height="1024" rx="96" fill="#fff9e8"/><circle cx="790" cy="190" r="150" fill="#ffe0a0"/><circle cx="210" cy="820" r="150" fill="#dff3b6"/><g fill="none" stroke="#8bc45c" stroke-width="26" opacity=".38"><circle cx="512" cy="530" r="330"/><circle cx="512" cy="530" r="238"/></g><path d="M382 286c96 42 154 126 154 232 0 120-70 202-164 202s-164-82-164-202c0-106 58-190 154-232 6-3 14-3 20 0z" fill="#bde36f"/><circle cx="330" cy="508" r="17" fill="#203422"/><circle cx="414" cy="508" r="17" fill="#203422"/><path d="M334 578c38 30 78 30 116 0" fill="none" stroke="#203422" stroke-width="17" stroke-linecap="round"/><path d="M584 568c84-36 154-24 212 36-64 56-142 70-230 34z" fill="#fffdf4" stroke="#5c8f44" stroke-width="18"/><path d="M636 268l28-72 28 72 72 28-72 28-28 72-28-72-72-28z" fill="#f7b23e"/><text x="82" y="150" font-family="Arial" font-size="70" font-weight="800" fill="#d2772a">SPARK</text></svg>