<svg xmlns="http://www.w3.org/2000/svg" viewBox="0 0 1024 1024"><rect width="1024" height="1024" rx="96" fill="#fff9e5"/><circle cx="790" cy="178" r="145" fill="#ffe18a"/><circle cx="220" cy="820" r="170" fill="#dff3b6"/><circle cx="512" cy="520" r="330" fill="none" stroke="#8bc45c" stroke-width="26" opacity=".34"/><path d="M338 290c82 38 132 110 132 202 0 102-58 172-138 172s-138-70-138-172c0-92 50-164 132-202 4-2 8-2 12 0zM650 290c82 38 132 110 132 202 0 102-58 172-138 172s-138-70-138-172c0-92 50-164 132-202 4-2 8-2 12 0z" fill="#bde36f"/><circle cx="306" cy="486" r="15" fill="#203422"/><circle cx="374" cy="486" r="15" fill="#203422"/><circle cx="618" cy="486" r="15" fill="#203422"/><circle cx="686" cy="486" r="15" fill="#203422"/><path d="M454 448c42-12 76-12 116 0" stroke="#f0af36" stroke-width="20" stroke-linecap="round"/><text x="92" y="150" font-family="Arial" font-size="72" font-weight="800" fill="#668d38">TEAM</text></svg>