<svg xmlns="http://www.w3.org/2000/svg" viewBox="0 0 1024 1024"><defs><linearGradient id="bg" x1="0" y1="0" x2="1" y2="1"><stop offset="0" stop-color="#EAF8FF"/><stop offset="1" stop-color="#FFFFFF"/></linearGradient><linearGradient id="onion" x1="0" y1="0" x2="1" y2="1"><stop offset="0" stop-color="#19B8FF"/><stop offset="1" stop-color="#0678FF"/></linearGradient><filter id="s"><feDropShadow dx="0" dy="22" stdDeviation="24" flood-color="#0879E9" flood-opacity=".18"/></filter></defs><rect width="1024" height="1024" rx="128" fill="url(#bg)"/><circle cx="815" cy="168" r="190" fill="#D8F2FF"/><circle cx="170" cy="840" r="220" fill="#FFF5DA"/><path d="M0 320C220 240 340 390 520 330C700 270 780 180 1024 220V0H0Z" fill="#D8F1FF" opacity=".8"/><text x="82" y="140" font-family="PingFang SC,Microsoft YaHei,Arial" font-size="54" font-weight="900" fill="#15233B">洋葱学园</text><text x="82" y="198" font-family="Arial" font-size="44" font-weight="900" fill="#0987FF">TEAM 搭子葱</text><g filter="url(#s)"><path d="M340 296c84 37 137 112 137 207 0 108-62 182-148 182s-148-74-148-182c0-95 53-170 137-207 6-2 16-2 22 0z" transform="translate(126 14)" fill="url(#onion)"/><path d="M340 296c84 37 137 112 137 207 0 108-62 182-148 182s-148-74-148-182c0-95 53-170 137-207 6-2 16-2 22 0z" transform="translate(424 14)" fill="url(#onion)"/><circle cx="430" cy="535" r="34" fill="#fff"/><circle cx="532" cy="535" r="34" fill="#fff"/><circle cx="491" cy="546" r="19" fill="#47270F"/><circle cx="632" cy="546" r="19" fill="#47270F"/><path d="M512 454c42-18 86-18 128 0" stroke="#FFB22E" stroke-width="22" stroke-linecap="round" fill="none"/><path d="M456 630c62 42 138 42 202 0" fill="none" stroke="#075DBB" stroke-width="16" stroke-linecap="round"/></g><text x="512" y="920" text-anchor="middle" font-family="PingFang SC,Microsoft YaHei,Arial" font-size="42" font-weight="900" fill="#15233B">有人一起，学习更有劲</text></svg>